<svg width="18" height="15" viewBox="0 0 18 15" fill="none" xmlns="http://www.w3.org/2000/svg">
<path d="M18 4.5603C17.6987 4.89178 17.3571 5.18307 16.9955 5.43419C15.3181 6.56923 13.6306 7.71432 11.9933 8.89959C11.1496 9.52236 10.1049 10.2857 9.01005 10.2857H9H8.98996C7.89509 10.2857 6.85045 9.52236 6.0067 8.89959C4.36942 7.70428 2.68192 6.56923 1.01451 5.43419C0.642857 5.18307 0.301339 4.89178 0 4.5603V12.5357C0 13.4197 0.723214 14.1429 1.60714 14.1429H16.3929C17.2768 14.1429 18 13.4197 18 12.5357V4.5603ZM18 1.60718C18 0.723248 17.2667 3.45707e-05 16.3929 3.45707e-05H1.60714C0.532366 3.45707e-05 0 0.843785 0 1.82816C0 2.74222 1.01451 3.87727 1.72768 4.35941C3.2846 5.44423 4.86161 6.52905 6.41853 7.62392C7.07143 8.07593 8.17634 9.00003 8.98996 9.00003H9H9.01005C9.82366 9.00003 10.9286 8.07593 11.5815 7.62392C13.1384 6.52905 14.7154 5.44423 16.2824 4.35941C17.1663 3.74669 18 2.73218 18 1.60718Z" fill="black"/>
</svg>
