<svg width="60" height="62" viewBox="0 0 60 62" fill="none" xmlns="http://www.w3.org/2000/svg">
<path d="M54.0451 6.09979C50.1824 2.17614 45.0966 0 39.6566 0C34.2167 0 29.1309 2.17614 25.2682 6.09979C22.2747 9.16616 20.3111 13.0568 19.603 17.2443C19.5386 17.6729 19.4742 18.1015 19.442 18.5302C19.4099 18.9588 19.3777 19.3874 19.3455 19.8161C19.3133 20.1458 19.3133 20.5085 19.3133 20.8382V23.6738V24.9597V26.2456V41.7093H34.4099H35.6652H36.9206C36.9528 41.3467 36.9528 41.0169 36.9528 40.6542V37.8516H35.6974H23.0794V26.2126V23.6738V20.8712C23.0794 20.5085 23.0794 20.1787 23.1116 19.8161C23.1438 19.3874 23.176 18.9588 23.2403 18.5302C23.3047 18.1015 23.3691 17.6729 23.4657 17.2443C24.1416 14.013 25.7511 11.1115 27.9399 8.83645C30.9335 5.77007 35.0858 3.8577 39.6566 3.8577C48.7983 3.8577 56.2339 11.4742 56.2339 20.8382C56.2339 25.5202 54.3669 29.7735 51.3734 32.8399C49.1524 35.115 46.3197 36.7306 43.1652 37.423V37.7857V40.6213C43.1652 40.885 43.1652 41.1159 43.1652 41.3796C47.2532 40.6542 51.0515 38.643 54.0451 35.5766C57.8755 31.6529 60 26.4104 60 20.8382C60 15.266 57.8755 10.0234 54.0451 6.09979Z" fill="#F7654A"/>
<path d="M23.0794 23.6408H24.3348H25.5901H36.9528V35.2798V36.5657V37.8516V40.6542C36.9528 41.0169 36.9528 41.3466 36.9206 41.7093C36.8884 42.138 36.8562 42.5666 36.7919 42.9952C36.7275 43.4239 36.6631 43.8525 36.5665 44.2811C35.8906 47.5124 34.2811 50.4139 32.0923 52.689C29.0987 55.7553 24.9464 57.6677 20.3755 57.6677C11.2339 57.6677 3.79828 50.0512 3.79828 40.6872C3.79828 36.0052 5.66524 31.7518 8.6588 28.6855C10.8798 26.4104 13.7124 24.7948 16.867 24.1024V20.9041C16.867 20.6403 16.867 20.4095 16.867 20.1458C12.779 20.8712 8.98069 22.8824 5.98713 25.9488C2.12446 29.8065 0 35.049 0 40.6213C0 46.1935 2.12446 51.403 5.95494 55.3597C9.78541 59.2833 14.9034 61.4595 20.3434 61.4595C25.7833 61.4595 30.8691 59.2833 34.7318 55.3597C38.3369 51.6668 40.4292 46.82 40.6545 41.6434C40.6545 41.4785 40.6545 41.3137 40.6867 41.1488C40.6867 41.0499 40.6867 40.984 40.6867 40.885C40.6867 40.7861 40.6867 40.7202 40.6867 40.6213V37.7857V19.7831H25.5901H24.3348H23.0794C23.0472 20.1458 23.0472 20.4755 23.0472 20.8382L23.0794 23.6408Z" fill="#F7654A"/>
</svg>
